<svg id="CF-20" xmlns="http://www.w3.org/2000/svg" width="99.139" height="97" viewBox="0 0 99.139 97">
  <path id="Path_139" data-name="Path 139" d="M98.432,37.284a5.725,5.725,0,0,0-4.161-1.689h-.751c.282-1.47.563-2.878.845-4.286a1.6,1.6,0,0,0-1.439-2.065,8.165,8.165,0,0,0-7.789,3.347c-1.783,2.628-3.316,5.443-5.1,8.259-.188.344-.407.657-.626,1.032a7.289,7.289,0,0,0-5.975-1.408c-2.284.344-4.567.845-6.882,1.189a2.878,2.878,0,0,1-1.689-.219c-2.534-1.189-5.036-2.471-7.539-3.723-.344-.188-.626-.469-.97-.688a51.868,51.868,0,0,0-5.568-3.848,16.517,16.517,0,0,0-18.394.782,34.411,34.411,0,0,0-8.2,7.727,31.877,31.877,0,0,1-8.478,7.789c-1.908,1.251-3.723,2.628-5.537,3.942a1.564,1.564,0,0,0-.438,2.284,1.533,1.533,0,0,0,2.221.313l.657-.469,9.948-7.1a5.819,5.819,0,0,0,1.314-1.314A41.794,41.794,0,0,1,34.96,36.1,11.95,11.95,0,0,1,42.906,34a18.238,18.238,0,0,1,9.885,4.192,25.026,25.026,0,0,0,5.349,3.472c1.908.907,3.848,1.846,5.725,2.878a4.255,4.255,0,0,0,3.128.344q4.035-.782,8.071-1.314a2.847,2.847,0,0,1,2.722,1.095,44.483,44.483,0,0,1-10.6,5.036,5.85,5.85,0,0,1-2.847,0c-3.566-.845-7.132-1.846-10.7-2.847-1.22-.313-2.065,0-2.377.938s.219,1.689,1.376,2.033l9.009,2.628a12.513,12.513,0,0,0,9.166-.751,104.08,104.08,0,0,0,16.736-9.385,16.738,16.738,0,0,1,1.877-1.157q2-1.22,4.129-2.252a5.787,5.787,0,0,1,1.752,0c-.25.375-.282.5-.375.594l-9.385,10.6a2.5,2.5,0,0,1-.719.563l-13.2,6.257a13.983,13.983,0,0,1-8.6.907c-4.943-.907-9.917-1.658-14.859-2.6a12.8,12.8,0,0,0-11.919,3.41,43.794,43.794,0,0,0-3.723,4.411,1.6,1.6,0,0,0,.156,2.534c.845.563,1.627.25,2.44-.751a44.544,44.544,0,0,1,4.254-4.536,8.446,8.446,0,0,1,7.477-2.221c4.974.876,9.979,1.658,14.953,2.6a19.114,19.114,0,0,0,11.981-1.22c3.128-1.5,6.257-3.128,9.541-4.38a18.425,18.425,0,0,0,7.258-5.6c2.6-3.128,5.412-6.257,8.133-9.385A1.793,1.793,0,0,0,98.432,37.284Zm-8.384-.532a1.126,1.126,0,0,1-.344.5l-5.975,4.1-.313-.25c1.5-2.346,3.128-4.755,4.567-7.07a3.41,3.41,0,0,1,2.878-1.5C90.58,34,90.33,35.376,90.048,36.752Z" transform="translate(-9.428 31.127)" fill="#776661"/>
  <path id="Path_140" data-name="Path 140" d="M41.624,57.529A19.864,19.864,0,1,0,21.76,37.664,19.864,19.864,0,0,0,41.624,57.529Zm0-36.319A16.455,16.455,0,1,1,25.17,37.664,16.455,16.455,0,0,1,41.624,21.21Z" transform="translate(16.816 6.941)" fill="#776661"/>
  <path id="Path_141" data-name="Path 141" d="M63.168,10.576c-.469,0-12.075-2.784-21.053,2.878S30.478,30.69,30.384,31.191l-.344,1.627,1.627.407a32.722,32.722,0,0,0,7.1.719,26.246,26.246,0,0,0,13.952-3.6c9.009-5.662,11.606-17.268,11.606-17.768l.375-1.627ZM50.905,27.437A26.058,26.058,0,0,1,34.2,30.19a26.058,26.058,0,0,1,9.729-13.7,26.058,26.058,0,0,1,16.7-2.753A26.058,26.058,0,0,1,50.905,27.437Z" transform="translate(34.438 -9.891)" fill="#776661"/>
  <path id="Path_142" data-name="Path 142" d="M41,30.372h1.721V28.683a20.271,20.271,0,0,0-4.974-13.139,20.083,20.083,0,0,0-13.17-4.974H22.92v1.689a20.334,20.334,0,0,0,4.974,13.17A20.209,20.209,0,0,0,41,30.372ZM35.339,17.859a15.391,15.391,0,0,1,3.848,8.884,15.641,15.641,0,0,1-8.916-3.816,15.641,15.641,0,0,1-3.816-8.916,15.391,15.391,0,0,1,8.884,3.91Z" transform="translate(19.285 -8.447)" fill="#776661"/>
</svg>
