<svg xmlns="http://www.w3.org/2000/svg" width="1321.239" height="312.815" viewBox="0 0 1321.239 312.815">
  <g id="Group_213" data-name="Group 213" transform="translate(-156.239 -1961)">
    <g id="Group_87" data-name="Group 87" transform="translate(199 2101.213)">
      <g id="CF-20">
        <path id="Path_139" data-name="Path 139" d="M108.068,38.163a6.345,6.345,0,0,0-4.611-1.872h-.832c.312-1.629.624-3.19.936-4.75a1.768,1.768,0,0,0-1.595-2.288,9.049,9.049,0,0,0-8.633,3.71c-1.976,2.912-3.675,6.032-5.651,9.153-.208.381-.451.728-.693,1.144a8.078,8.078,0,0,0-6.622-1.56c-2.531.381-5.062.936-7.627,1.317a3.19,3.19,0,0,1-1.872-.243c-2.808-1.317-5.582-2.739-8.355-4.126-.381-.208-.693-.52-1.075-.763a57.484,57.484,0,0,0-6.171-4.264,18.305,18.305,0,0,0-20.386.867A38.137,38.137,0,0,0,25.8,43.052a35.328,35.328,0,0,1-9.4,8.633c-2.115,1.387-4.126,2.912-6.136,4.368a1.733,1.733,0,0,0-.485,2.531,1.7,1.7,0,0,0,2.462.347l.728-.52,11.025-7.87a6.449,6.449,0,0,0,1.456-1.456A46.318,46.318,0,0,1,37.724,36.846a13.244,13.244,0,0,1,8.806-2.323,20.212,20.212,0,0,1,10.956,4.646,27.735,27.735,0,0,0,5.928,3.848c2.115,1.005,4.264,2.045,6.344,3.19a4.715,4.715,0,0,0,3.467.381q4.472-.867,8.945-1.456a3.155,3.155,0,0,1,3.016,1.213,49.3,49.3,0,0,1-11.753,5.582,6.483,6.483,0,0,1-3.155,0c-3.952-.936-7.9-2.045-11.857-3.155-1.352-.347-2.288,0-2.635,1.04s.243,1.872,1.525,2.254L67.3,54.978a13.868,13.868,0,0,0,10.158-.832A115.348,115.348,0,0,0,96,43.745a18.55,18.55,0,0,1,2.08-1.283q2.219-1.352,4.576-2.5a6.414,6.414,0,0,1,1.941,0c-.277.416-.312.555-.416.659l-10.4,11.753a2.773,2.773,0,0,1-.8.624l-14.63,6.934a15.5,15.5,0,0,1-9.534,1.005c-5.478-1.005-10.99-1.837-16.468-2.878a14.18,14.18,0,0,0-13.209,3.779,48.535,48.535,0,0,0-4.126,4.888,1.768,1.768,0,0,0,.173,2.808c.936.624,1.8.277,2.7-.832a49.367,49.367,0,0,1,4.715-5.027A9.361,9.361,0,0,1,50.9,61.218c5.512.971,11.06,1.837,16.572,2.878a21.183,21.183,0,0,0,13.278-1.352c3.467-1.664,6.934-3.467,10.574-4.854a20.42,20.42,0,0,0,8.043-6.206c2.878-3.467,6-6.934,9.014-10.4C109.247,40.1,109.247,39.273,108.068,38.163Zm-9.291-.589a1.248,1.248,0,0,1-.381.555L91.773,42.67l-.347-.277c1.664-2.6,3.467-5.27,5.062-7.835a3.779,3.779,0,0,1,3.19-1.664C99.366,34.523,99.089,36.048,98.777,37.574Z" transform="translate(-9.428 37.654)" fill="#776661"/>
        <path id="Path_140" data-name="Path 140" d="M43.775,61.83A22.015,22.015,0,1,0,21.76,39.815,22.015,22.015,0,0,0,43.775,61.83Zm0-40.251A18.236,18.236,0,1,1,25.539,39.815,18.236,18.236,0,0,1,43.775,21.579Z" transform="translate(20.993 9.619)" fill="#776661"/>
        <path id="Path_141" data-name="Path 141" d="M66.755,10.65c-.52,0-13.382-3.086-23.332,3.19s-12.9,19.1-13,19.658l-.381,1.8,1.8.451a36.264,36.264,0,0,0,7.87.8,29.088,29.088,0,0,0,15.463-3.987c9.985-6.275,12.862-19.137,12.862-19.692l.416-1.8ZM53.164,29.337a28.88,28.88,0,0,1-18.513,3.051A28.88,28.88,0,0,1,45.433,17.2a28.88,28.88,0,0,1,18.513-3.051A28.88,28.88,0,0,1,53.164,29.337Z" transform="translate(41.419 -9.891)" fill="#776661"/>
        <path id="Path_142" data-name="Path 142" d="M42.959,32.516h1.907V30.644a22.466,22.466,0,0,0-5.512-14.561,22.258,22.258,0,0,0-14.6-5.512H22.92v1.872a22.535,22.535,0,0,0,5.512,14.6,22.4,22.4,0,0,0,14.526,5.478ZM36.684,18.648a17.057,17.057,0,0,1,4.264,9.846,17.335,17.335,0,0,1-9.881-4.23,17.335,17.335,0,0,1-4.23-9.881,17.057,17.057,0,0,1,9.846,4.334Z" transform="translate(23.854 -8.217)" fill="#776661"/>
      </g>
      <path id="CF-21" d="M139.269,63.557,127.517,29.373a.277.277,0,0,0,0-.173h0v-.208h0v-.173h-.659L70.9,12.732h0a1.664,1.664,0,0,0-1.352,0L21.6,37.347a1.907,1.907,0,0,0-.9.971L7.942,69.52a2.011,2.011,0,0,0,0,1.491,1.907,1.907,0,0,0,1.144,1.005l12.1,3.779H20.111V95.488a1.872,1.872,0,0,0,1.283,1.768l64.346,22.05a1.63,1.63,0,0,0,.589,0,2.046,2.046,0,0,0,1.248-.451l39.35-34.184a1.837,1.837,0,0,0,.659-1.421V62.933l9.187,3.086a1.872,1.872,0,0,0,1.907-.485,1.837,1.837,0,0,0,.589-1.976ZM85.74,52.775,72.67,49.516l-.243-32.485,48.537,13.625ZM68.891,48.684l-41.083-10.4,40.84-20.8ZM23.578,41.23l59.215,14.7L74.368,88.623l-62.4-19.449ZM23.925,76.8,75.235,92.818a1.56,1.56,0,0,0,.555,0,1.8,1.8,0,0,0,.936-.243,1.942,1.942,0,0,0,.9-1.179l6.934-26.938v50.548l-60.567-20.8Zm64.312,36.715v-57.9L123.807,33.36v49.23Zm39.384-54.431V41.4l6.934,19.9Z" transform="translate(349.491 -8.631)" fill="#776661"/>
      <g id="CF-22" transform="translate(739.646 3.958)">
        <path id="Path_143" data-name="Path 143" d="M150.871,55.843l-20.8-20.8a7.939,7.939,0,0,0-5.651-2.358H104.137v-10.4a8.043,8.043,0,0,0-8.009-8.043H16.389A8.043,8.043,0,0,0,8.38,22.283v67.4a8.043,8.043,0,0,0,8.009,8.009H20.93a14.145,14.145,0,0,0,28.013,0H106.7a14.145,14.145,0,0,0,28.013,0h10.4a8.043,8.043,0,0,0,8.113-8.009V61.6a7.835,7.835,0,0,0-2.358-5.755Zm-115.865,50.2a10.4,10.4,0,1,1,10.4-10.4,10.4,10.4,0,0,1-10.4,10.4Zm65.456-12.238H49.012a14.145,14.145,0,0,0-28.013,0H16.631A4.23,4.23,0,0,1,12.4,89.68V22.249a4.264,4.264,0,0,1,4.23-4.264H96.371a4.264,4.264,0,0,1,4.23,4.264V93.806Zm20.247,12.238a10.4,10.4,0,1,1,10.4-10.4A10.4,10.4,0,0,1,120.709,106.044ZM149.45,89.68a4.23,4.23,0,0,1-4.23,4.23h-10.4a14.145,14.145,0,0,0-28.013,0h-2.67V36.359H124.21a4.23,4.23,0,0,1,2.982,1.248l20.8,20.8a4.23,4.23,0,0,1,1.248,2.982Z" transform="translate(-8.38 -14.24)" fill="#776661"/>
        <rect id="Rectangle_29" data-name="Rectangle 29" width="70.205" height="3.779" transform="translate(10.297 12.862)" fill="#776661"/>
        <rect id="Rectangle_30" data-name="Rectangle 30" width="70.205" height="3.779" transform="translate(10.297 25.759)" fill="#776661"/>
        <rect id="Rectangle_31" data-name="Rectangle 31" width="70.205" height="3.779" transform="translate(10.297 38.691)" fill="#776661"/>
        <rect id="Rectangle_32" data-name="Rectangle 32" width="70.205" height="3.779" transform="translate(10.297 51.623)" fill="#776661"/>
        <path id="Path_144" data-name="Path 144" d="M37.24,21.67V53.358H68.2V38.207L51.662,21.67ZM64.421,49.405h-23.4V25.137h9.257L64.594,39.455Z" transform="translate(62.816 4.089)" fill="#776661"/>
      </g>
      <g id="CF-23" transform="translate(1124.214 3.958)">
        <path id="Path_145" data-name="Path 145" d="M45.972,28.961a10.4,10.4,0,1,0-10.4,10.4,10.4,10.4,0,0,0,10.4-10.4Zm-16.676,0a6.449,6.449,0,1,1,6.449,6.449A6.449,6.449,0,0,1,29.3,28.961Z" transform="translate(7.634 2.068)" fill="#776661"/>
        <path id="Path_146" data-name="Path 146" d="M102.492,64.213,90.011,31l-3.467,1.317,10.99,29.3L80.685,54.887a1.7,1.7,0,0,0-1.421,0L59.155,62.93,39.047,54.887a1.7,1.7,0,0,0-1.421,0L20.776,61.613l10.99-29.3L28.3,31,15.819,64.283a1.907,1.907,0,0,0,2.462,2.427l20-7.974,20.039,7.9a1.907,1.907,0,0,0,1.387,0l20.178-7.9,20.039,7.9a1.56,1.56,0,0,0,.693,0,1.768,1.768,0,0,0,1.317-.555A1.8,1.8,0,0,0,102.492,64.213Z" transform="translate(-15.708 32.757)" fill="#776661"/>
        <path id="Path_147" data-name="Path 147" d="M50.3,95.5a1.837,1.837,0,0,0,1.421-.659c1.213-1.421,29.608-34.669,29.608-51.207a31.029,31.029,0,0,0-62.058,0c0,16.607,28.394,49.785,29.608,51.207A1.837,1.837,0,0,0,50.3,95.5Zm-27.25-52a27.25,27.25,0,0,1,54.5,0c0,6.171-4.923,16.537-14.214,29.92C58.1,80.978,52.761,87.53,50.3,90.512c-2.462-2.982-7.8-9.534-13.036-17.092C27.972,60.176,23.049,49.81,23.049,43.639Z" transform="translate(-6.921 -12.61)" fill="#776661"/>
      </g>
      <text id="We_are_picking_the_best_fresh_vegetables_from_our_farms_" data-name="We are picking
the best fresh
vegetables from
our farms
" transform="translate(130.259 36.906)" fill="#776661" font-size="13" font-family="Montserrat-Medium, Montserrat" font-weight="500"><tspan x="0" y="0">We are picking</tspan><tspan x="0" y="22">the best fresh</tspan><tspan x="0" y="44">vegetables from</tspan><tspan x="0" y="66">our farms</tspan><tspan x="0" y="88"></tspan></text>
      <text id="We_are_carefully_packing_vegetables" data-name="We are carefully
packing
vegetables" transform="translate(504.852 36.69)" fill="#776661" font-size="15" font-family="Montserrat-Medium, Montserrat" font-weight="500"><tspan x="0" y="0">We are carefully</tspan><tspan x="0" y="21">packing</tspan><tspan x="0" y="42">vegetables</tspan></text>
      <text id="Fast_free_delivery_up_to_40_aed" data-name="Fast free 
delivery up to
40 aed" transform="translate(904.883 36.906)" fill="#776661" font-size="13" font-family="Montserrat-Medium, Montserrat" font-weight="500"><tspan x="0" y="0">Fast free </tspan><tspan x="0" y="22">delivery up to</tspan><tspan x="0" y="44">40 aed</tspan></text>
      <text id="To_your_location_" data-name="To your
location " transform="translate(1221.477 36.906)" fill="#776661" font-size="13" font-family="Montserrat-Medium, Montserrat" font-weight="500"><tspan x="0" y="0">To your</tspan><tspan x="0" y="22">location </tspan></text>
    </g>
    <path id="Path_148" data-name="Path 148" d="M580,564s26.6,47.286,107.871,45.808a191.113,191.113,0,0,0,32.022-3.149C774.744,596.331,789.831,564,789.831,564" transform="translate(-201.461 1661.972)" fill="none" stroke="#776661" stroke-width="4" stroke-dasharray="4 4"/>
    <path id="Path_149" data-name="Path 149" d="M0,0S26.6,47.286,107.871,45.808a191.112,191.112,0,0,0,32.022-3.149C194.743,32.331,209.831,0,209.831,0" transform="translate(950.033 2087.842) rotate(180)" fill="none" stroke="#776661" stroke-width="4" stroke-dasharray="4 4"/>
    <path id="Path_150" data-name="Path 150" d="M580,564s26.6,47.286,107.871,45.808a191.113,191.113,0,0,0,32.022-3.149C774.744,596.331,789.831,564,789.831,564" transform="translate(524.451 1644.592)" fill="none" stroke="#776661" stroke-width="4" stroke-dasharray="4 4"/>
    <text id="How_We_Work" data-name="How We Work" transform="translate(156.239 2019)" fill="#776661" font-size="60" font-family="Montserrat-SemiBold, Montserrat" font-weight="600"><tspan x="0" y="0">How We Work</tspan></text>
  </g>
</svg>
